<svg width="2803" height="2804" viewBox="0 0 2803 2804" fill="none" xmlns="http://www.w3.org/2000/svg">
<path d="M2391.45 2391.45C2521.45 2261.45 2624.57 2107.11 2694.93 1937.26C2765.29 1767.4 2801.5 1585.35 2801.5 1401.5C2801.5 1217.65 2765.29 1035.6 2694.93 865.743C2624.58 695.888 2521.45 541.553 2391.45 411.551L1401.5 1401.5L2391.45 2391.45Z" fill="#F8DB8E"/>
<path d="M411.551 411.551C541.553 281.549 695.888 178.426 865.743 108.069C1035.6 37.7124 1217.65 1.50039 1401.5 1.50043C1585.35 1.50046 1767.4 37.7127 1937.26 108.069C2107.11 178.426 2261.45 281.549 2391.45 411.551L1401.5 1401.5L411.551 411.551Z" fill="#9AB4EE"/>
<path d="M2391.46 2391.55C2261.45 2521.55 2107.12 2624.68 1937.26 2695.03C1767.41 2765.39 1585.36 2801.6 1401.51 2801.6C1217.66 2801.6 1035.61 2765.39 865.75 2695.03C695.895 2624.68 541.56 2521.55 411.558 2391.55L1401.51 1401.6L2391.46 2391.55Z" fill="#EBAAB4"/>
<path d="M411.551 411.551C281.549 541.553 178.426 695.888 108.069 865.744C37.7123 1035.6 1.50021 1217.65 1.50018 1401.5C1.50016 1585.35 37.7122 1767.4 108.069 1937.26C178.425 2107.11 281.549 2261.45 411.551 2391.45L1401.5 1401.5L411.551 411.551Z" fill="#5D8E5F"/>
<path d="M2391.45 411.551C2521.45 541.553 2624.58 695.888 2694.93 865.743C2765.29 1035.6 2801.5 1217.65 2801.5 1401.5C2801.5 1585.35 2765.29 1767.4 2694.93 1937.26C2624.57 2107.11 2521.45 2261.45 2391.45 2391.45L1401.5 1401.5M2391.45 411.551L1401.5 1401.5M1401.5 1401.5L411.551 2391.45C281.549 2261.45 178.425 2107.11 108.069 1937.26C37.7122 1767.4 1.50016 1585.35 1.50018 1401.5C1.50021 1217.65 37.7123 1035.6 108.069 865.744C178.426 695.888 281.549 541.553 411.551 411.551C541.553 281.549 695.888 178.426 865.743 108.069C1035.6 37.7124 1217.65 1.50039 1401.5 1.50043C1585.35 1.50046 1767.4 37.7127 1937.26 108.069C2107.11 178.426 2261.45 281.549 2391.45 411.551M1401.5 1401.5L411.551 411.551M2391.46 2391.55C2261.45 2521.55 2107.12 2624.68 1937.26 2695.03C1767.41 2765.39 1585.36 2801.6 1401.51 2801.6C1217.66 2801.6 1035.61 2765.39 865.75 2695.03C695.895 2624.68 541.56 2521.55 411.558 2391.55L1401.51 1401.6L2391.46 2391.55Z" stroke="#4687C8" stroke-width="3"/>
</svg>
