<svg width="123" height="101" viewBox="0 0 123 101" fill="none" xmlns="http://www.w3.org/2000/svg">
<g filter="url(#filter0_d_2578_715)">
<path d="M117.202 32.3288C115.562 50.913 105.505 69.6309 92.0223 82.239C88.2205 85.7979 84.2728 88.5795 79.7907 91.0695C74.507 93.9969 68.8588 95.2237 62.8584 95.7703C61.1215 95.9282 59.6517 95.8188 57.8419 95.7338L54.2344 95.5516L46.6185 94.3977C43.4725 93.4017 40.4723 92.4542 37.5936 90.8752C33.0508 88.373 29.0303 85.5429 25.1798 81.9475C11.6971 69.3515 1.63979 50.6215 0 32.0373V24.0448C0 20.0608 1.26324 16.2832 2.87873 12.6999C6.6806 4.27023 14.1507 -0.430488 23.4914 0.0310816C32.3098 0.468358 42.8409 6.1408 49.0235 12.0926L54.1008 16.9755L58.7286 22.4536L63.1014 17.2792L67.5348 12.9186C73.7903 6.76028 84.6615 0.772022 93.7107 0.322599C108.08 -0.381901 116.097 10.7686 117.202 24.3363V32.3288Z" fill="#4687C8"/>
<path d="M36.3787 59.4045C35.5771 60.2791 34.5082 60.352 33.7308 59.8661C33.087 59.4531 32.5647 58.032 33.2328 57.291L42.039 47.5131L34.0709 43.7233C33.1235 43.2739 32.8198 42.1686 33.1477 41.3669C33.5243 40.4681 34.6296 39.8364 35.6864 40.3102L45.6466 44.8894C46.3875 45.2295 46.9098 45.7154 47.0312 46.3591C47.177 47.0515 47.0313 47.8532 46.4725 48.4484L36.3666 59.4045H36.3787Z" fill="#EDE5D2"/>
<path d="M79.3413 53.3421C80.398 53.8887 80.5559 55.1033 80.1187 55.9536C79.7178 56.7431 78.5882 57.1682 77.6165 56.6824L65.4334 50.5484C64.6803 50.1718 64.1581 49.7345 64.0002 49.0908C63.7937 48.2405 64.0123 47.4267 64.7168 46.8315L74.3247 38.7055C75.0414 38.0982 76.3532 38.414 76.8148 38.9606C77.2763 39.5072 77.4829 40.8676 76.7905 41.4627L69.126 48.0948L79.3291 53.3421H79.3413Z" fill="#EDE5D2"/>
<path d="M56.8202 72.7166C52.5081 73.4211 46.6778 73.1417 44.6493 69.5585C44.1999 68.769 44.4914 67.7729 45.0623 67.2628C46.8842 65.623 47.8074 68.5989 50.7104 68.9997C53.6134 69.4006 56.31 69.1091 59.0065 68.2466C63.5736 66.7769 64.0473 63.5945 65.8814 63.3759C66.5617 63.2909 66.9625 63.8496 67.5334 64.1776C71.2138 66.2789 73.9832 69.8014 74.6027 74.0163C75.2221 78.2311 72.6592 81.3649 68.6751 81.7779C62.9298 82.361 59.3101 77.8667 56.8322 72.7287L56.8202 72.7166Z" fill="#EDE5D2"/>
<path d="M60.6836 71.8661C61.0844 71.3559 61.6796 71.2588 62.2626 71.1737L64.8134 74.4169C65.36 75.1092 66.4168 75.1092 67.1213 74.757C67.8258 74.4047 68.3116 73.433 67.9108 72.5099C66.9634 70.2992 64.9227 69.291 65.7244 68.3922C67.2913 66.6309 73.0002 74.9149 70.0365 77.1863C66.7204 79.7371 62.7242 76.1053 60.6958 71.854L60.6836 71.8661Z" fill="#4687C8"/>
</g>
<defs>
<filter id="filter0_d_2578_715" x="0" y="0" width="122.203" height="100.85" filterUnits="userSpaceOnUse" color-interpolation-filters="sRGB">
<feFlood flood-opacity="0" result="BackgroundImageFix"/>
<feColorMatrix in="SourceAlpha" type="matrix" values="0 0 0 0 0 0 0 0 0 0 0 0 0 0 0 0 0 0 127 0" result="hardAlpha"/>
<feOffset dx="5" dy="5"/>
<feComposite in2="hardAlpha" operator="out"/>
<feColorMatrix type="matrix" values="0 0 0 0 0.921569 0 0 0 0 0.666667 0 0 0 0 0.705882 0 0 0 1 0"/>
<feBlend mode="normal" in2="BackgroundImageFix" result="effect1_dropShadow_2578_715"/>
<feBlend mode="normal" in="SourceGraphic" in2="effect1_dropShadow_2578_715" result="shape"/>
</filter>
</defs>
</svg>
