<?xml version="1.0" encoding="UTF-8"?>
<svg id="Layer_1" data-name="Layer 1" xmlns="http://www.w3.org/2000/svg" xmlns:xlink="http://www.w3.org/1999/xlink" viewBox="0 0 71.43 96.94">
  <defs>
    <style>
      .cls-1 {
        fill: none;
        stroke: #f0ead8;
        stroke-dasharray: 0 8.13;
        stroke-linecap: round;
        stroke-linejoin: round;
        stroke-width: 10px;
      }

      .cls-2 {
        filter: url(#drop-shadow-26);
      }

      .cls-3 {
        filter: url(#drop-shadow-25);
      }

      .cls-4 {
        fill: #4789c8;
      }

      .cls-5 {
        fill: #f0ead8;
      }
    </style>
    <filter id="drop-shadow-25" x="-8" y="-8.01" width="88.56" height="114.24" filterUnits="userSpaceOnUse">
      <feOffset dx=".57" dy=".57"/>
      <feGaussianBlur result="blur" stdDeviation="2.83"/>
      <feFlood flood-color="#231f20" flood-opacity="1"/>
      <feComposite in2="blur" operator="in"/>
      <feComposite in="SourceGraphic"/>
    </filter>
    <filter id="drop-shadow-26" x="0" y="0" width="71.43" height="96.94" filterUnits="userSpaceOnUse">
      <feOffset dx=".57" dy=".57"/>
      <feGaussianBlur result="blur-2" stdDeviation="0"/>
      <feFlood flood-color="#231f20" flood-opacity=".5"/>
      <feComposite in2="blur-2" operator="in"/>
      <feComposite in="SourceGraphic"/>
    </filter>
  </defs>
  <g class="cls-3">
    <g class="cls-2">
      <path class="cls-4" d="M68.37,87.62c0-1.38,1.12-2.5,2.5-2.5v-3.76c-1.38,0-2.5-1.12-2.5-2.5s1.12-2.5,2.5-2.5v-3.76c-1.38,0-2.5-1.12-2.5-2.51s1.12-2.49,2.5-2.49v-3.77c-1.38,0-2.5-1.11-2.5-2.5s1.12-2.5,2.5-2.5v-3.76c-1.38,0-2.5-1.12-2.5-2.5s1.12-2.5,2.5-2.5v-3.76c-1.38,0-2.5-1.12-2.5-2.5s1.12-2.5,2.5-2.5v-3.76c-1.38,0-2.5-1.12-2.5-2.5s1.12-2.5,2.5-2.5v-3.76c-1.38,0-2.5-1.12-2.5-2.5s1.12-2.5,2.5-2.5v-3.76c-1.38,0-2.5-1.12-2.5-2.5s1.12-2.51,2.5-2.51v-3.76c-1.38,0-2.5-1.12-2.5-2.5s1.12-2.5,2.5-2.5v-3.76c-.17,0-.33,0-.49-.05-.16-.03-.32-.08-.47-.14-.15-.06-.29-.14-.43-.23s-.26-.19-.38-.31c-.11-.11-.22-.24-.31-.38-.09-.14-.17-.28-.23-.43-.06-.15-.11-.31-.14-.47-.03-.16-.05-.33-.05-.49h-3.86c0,1.38-1.12,2.5-2.5,2.5s-2.5-1.12-2.5-2.5h-3.86c0,1.38-1.12,2.5-2.5,2.5s-2.5-1.12-2.5-2.5h-3.86c0,1.38-1.12,2.5-2.5,2.5s-2.5-1.12-2.5-2.5h-3.86c0,1.38-1.12,2.5-2.5,2.5s-2.5-1.12-2.5-2.5h-3.85c0,1.38-1.12,2.5-2.5,2.5s-2.5-1.12-2.5-2.5h-3.86c0,1.38-1.12,2.5-2.5,2.5s-2.5-1.12-2.5-2.5h-3.86c0,1.38-1.12,2.5-2.5,2.5s-2.5-1.12-2.5-2.5h-3.86c0,.16-.02.33-.05.49-.03.16-.08.32-.14.47-.06.15-.14.29-.23.43-.09.14-.2.27-.31.38-.12.12-.24.22-.38.31-.14.09-.28.17-.43.23-.15.06-.31.11-.47.14-.16.04-.33.05-.49.05v3.76c1.38,0,2.5,1.12,2.5,2.5s-1.12,2.5-2.5,2.5v3.76c1.38,0,2.5,1.12,2.5,2.51s-1.12,2.5-2.5,2.5v3.76c1.38,0,2.5,1.12,2.5,2.5s-1.12,2.5-2.5,2.5v3.76c1.38,0,2.5,1.12,2.5,2.5s-1.12,2.5-2.5,2.5v3.76c1.38,0,2.5,1.12,2.5,2.5s-1.12,2.5-2.5,2.5v3.76c1.38,0,2.5,1.12,2.5,2.5s-1.12,2.5-2.5,2.5v3.76c1.38,0,2.5,1.12,2.5,2.5s-1.12,2.5-2.5,2.5v3.77c1.38,0,2.5,1.12,2.5,2.49s-1.12,2.51-2.5,2.51v3.76c1.38,0,2.5,1.12,2.5,2.5s-1.12,2.5-2.5,2.5v3.76c1.38,0,2.5,1.12,2.5,2.5s-1.12,2.5-2.5,2.5v3.77c.16,0,.33.01.49.04.16.03.32.08.47.14.15.06.29.14.43.23.14.09.26.2.38.31.11.12.22.25.31.38.09.14.17.28.23.43.06.16.11.31.14.47.03.16.05.33.05.49h3.86c0-1.38,1.12-2.5,2.5-2.5s2.5,1.12,2.5,2.5h3.86c0-1.38,1.12-2.5,2.5-2.5s2.5,1.12,2.5,2.5h3.86c0-1.38,1.12-2.5,2.5-2.5s2.5,1.12,2.5,2.5h3.85c0-1.38,1.12-2.5,2.51-2.5s2.49,1.12,2.49,2.5h3.86c0-1.38,1.12-2.5,2.5-2.5s2.5,1.12,2.5,2.5h3.86c0-1.38,1.12-2.5,2.5-2.5s2.5,1.12,2.5,2.5h3.86c0-1.38,1.12-2.5,2.5-2.5s2.5,1.12,2.5,2.5h3.86c0-.66.26-1.3.73-1.77.46-.46,1.11-.71,1.77-.71v-3.78c-1.38,0-2.5-1.12-2.5-2.5Z"/>
    </g>
    <g>
      <rect class="cls-5" x="12.76" y="12.76" width="45.35" height="70.87" rx="2.83" ry="2.83"/>
      <rect class="cls-1" x="12.76" y="12.76" width="45.35" height="70.87" rx="2.83" ry="2.83"/>
    </g>
    <g>
      <g>
        <path class="cls-4" d="M22.53,75.57v-18.12c0-.58.5-1.02,1.07-.96,5.06.54,9,4.82,9,10.02,0,5.2-3.94,9.49-9,10.02-.57.06-1.07-.39-1.07-.96Z"/>
        <path class="cls-4" d="M41.34,59.66c1.69-1.62,4.44-1.62,6.12,0,1.24,1.18,1.63,2.96.91,4.66-.17.39-.41.74-.72,1.04l-.84.8c-.2.19-.2.51,0,.7l.84.8c.31.3.56.65.72,1.04.73,1.7.33,3.47-.91,4.66-1.69,1.62-4.44,1.62-6.12,0l-6.42-6.15c-.4-.38-.4-1.01,0-1.4l6.42-6.15Z"/>
      </g>
      <path class="cls-4" d="M23.02,25.98h16.83c.14,0,.25-.11.25-.25v-5.4c0-.27.22-.49.49-.49h3.09c.27,0,.49.22.49.49v5.55c0,.12.08.22.2.24l3.57.65c.23.04.4.25.4.48v3.39c0,.27-.22.49-.49.49h-24.83c-.27,0-.49-.22-.49-.49v-4.18c0-.27.22-.49.49-.49Z"/>
      <path class="cls-4" d="M22.14,44.33c0-1.57.19-2.97.58-4.18.39-1.21.94-2.23,1.65-3.07.71-.84,1.55-1.47,2.51-1.91.84-.38,1.8-.6,2.88-.67.28-.02.52.21.52.49v3.97c0,.25-.19.47-.44.49-.56.05-1.05.16-1.46.34-.51.22-.93.53-1.27.94s-.6.94-.76,1.58c-.17.64-.25,1.34-.25,2.09,0,1.04.14,1.95.41,2.73.27.77.67,1.37,1.2,1.78.53.41,1.15.62,1.86.62h1.1c.83,0,1.48-.22,1.97-.65s.84-1.01,1.06-1.71c.22-.7.34-1.48.34-2.33v-1.98c0-.27.22-.49.49-.49h2.52c.27,0,.49.22.49.49v1.76c0,1.31.29,2.37.88,3.18.59.81,1.36,1.22,2.3,1.22h.89c.71,0,1.29-.19,1.75-.58.46-.39.81-.91,1.06-1.56.25-.65.37-1.42.37-2.29,0-1.07-.16-1.96-.48-2.69-.32-.73-.79-1.29-1.42-1.69-.52-.33-1.13-.55-1.82-.66-.24-.04-.43-.24-.43-.49v-3.73c0-.29.24-.51.53-.49,1.41.12,2.66.54,3.74,1.26,1.22.81,2.15,1.97,2.82,3.47.66,1.5.99,3.26.99,5.27,0,1.87-.26,3.5-.78,4.91-.52,1.4-1.29,2.5-2.32,3.27-1.03.78-2.28,1.16-3.77,1.16-.76,0-1.44-.12-2.05-.34-.61-.23-1.17-.56-1.66-.98s-.92-.93-1.26-1.53c-.32-.56-.56-1.16-.73-1.81-.02-.08-.09-.13-.17-.13h0c-.08,0-.16.06-.17.15-.17.98-.49,1.86-.97,2.63-.5.81-1.19,1.45-2.07,1.93-.89.47-1.92.71-3.1.71-1.61,0-2.97-.44-4.09-1.33-1.12-.88-1.98-2.11-2.57-3.67-.59-1.56-.89-3.39-.89-5.47Z"/>
    </g>
  </g>
</svg>