<?xml version="1.0" encoding="UTF-8"?>
<svg id="Layer_1" data-name="Layer 1" xmlns="http://www.w3.org/2000/svg" xmlns:xlink="http://www.w3.org/1999/xlink" viewBox="0 0 71.43 96.94">
  <defs>
    <style>
      .cls-1 {
        filter: url(#drop-shadow-27);
      }

      .cls-2 {
        filter: url(#drop-shadow-26);
      }

      .cls-3, .cls-4 {
        fill: #4789c8;
      }

      .cls-4 {
        font-family: STIXTwoTextRoman-Medium, 'STIX Two Text';
        font-size: 10px;
        font-variation-settings: 'wght' 500;
        font-weight: 500;
      }

      .cls-5 {
        letter-spacing: 0em;
      }

      .cls-6 {
        letter-spacing: 0em;
      }

      .cls-7 {
        fill: #f0ead8;
      }

      .cls-8 {
        letter-spacing: .05em;
      }
    </style>
    <filter id="drop-shadow-26" x="-8.14" y="-8.17" width="88.8" height="114.24" filterUnits="userSpaceOnUse">
      <feOffset dx=".57" dy=".57"/>
      <feGaussianBlur result="blur" stdDeviation="2.83"/>
      <feFlood flood-color="#231f20" flood-opacity="1"/>
      <feComposite in2="blur" operator="in"/>
      <feComposite in="SourceGraphic"/>
    </filter>
    <filter id="drop-shadow-27" x="0" y="0" width="71.43" height="96.94" filterUnits="userSpaceOnUse">
      <feOffset dx=".57" dy=".57"/>
      <feGaussianBlur result="blur-2" stdDeviation="0"/>
      <feFlood flood-color="#231f20" flood-opacity=".5"/>
      <feComposite in2="blur-2" operator="in"/>
      <feComposite in="SourceGraphic"/>
    </filter>
  </defs>
  <g class="cls-2">
    <g class="cls-1">
      <path class="cls-7" d="M68.37,87.62c0-1.38,1.12-2.5,2.5-2.5v-3.76c-1.38,0-2.5-1.12-2.5-2.5s1.12-2.5,2.5-2.5v-3.76c-1.38,0-2.5-1.12-2.5-2.51s1.12-2.49,2.5-2.49v-3.77c-1.38,0-2.5-1.11-2.5-2.5s1.12-2.5,2.5-2.5v-3.76c-1.38,0-2.5-1.12-2.5-2.5s1.12-2.5,2.5-2.5v-3.76c-1.38,0-2.5-1.12-2.5-2.5s1.12-2.5,2.5-2.5v-3.76c-1.38,0-2.5-1.12-2.5-2.5s1.12-2.5,2.5-2.5v-3.76c-1.38,0-2.5-1.12-2.5-2.5s1.12-2.5,2.5-2.5v-3.76c-1.38,0-2.5-1.12-2.5-2.5s1.12-2.51,2.5-2.51v-3.76c-1.38,0-2.5-1.12-2.5-2.5s1.12-2.5,2.5-2.5v-3.76c-.17,0-.33,0-.49-.05-.16-.03-.32-.08-.47-.14-.15-.06-.29-.14-.43-.23s-.26-.19-.38-.31c-.11-.11-.22-.24-.31-.38-.09-.14-.17-.28-.23-.43-.06-.15-.11-.31-.14-.47-.03-.16-.05-.33-.05-.49h-3.86c0,1.38-1.12,2.5-2.5,2.5s-2.5-1.12-2.5-2.5h-3.86c0,1.38-1.12,2.5-2.5,2.5s-2.5-1.12-2.5-2.5h-3.86c0,1.38-1.12,2.5-2.5,2.5s-2.5-1.12-2.5-2.5h-3.86c0,1.38-1.12,2.5-2.5,2.5s-2.5-1.12-2.5-2.5h-3.85c0,1.38-1.12,2.5-2.5,2.5s-2.5-1.12-2.5-2.5h-3.86c0,1.38-1.12,2.5-2.5,2.5s-2.5-1.12-2.5-2.5h-3.86c0,1.38-1.12,2.5-2.5,2.5s-2.5-1.12-2.5-2.5h-3.86c0,.16-.02.33-.05.49-.03.16-.08.32-.14.47-.06.15-.14.29-.23.43-.09.14-.2.27-.31.38-.12.12-.24.22-.38.31-.14.09-.28.17-.43.23-.15.06-.31.11-.47.14-.16.04-.33.05-.49.05v3.76c1.38,0,2.5,1.12,2.5,2.5s-1.12,2.5-2.5,2.5v3.76c1.38,0,2.5,1.12,2.5,2.51s-1.12,2.5-2.5,2.5v3.76c1.38,0,2.5,1.12,2.5,2.5s-1.12,2.5-2.5,2.5v3.76c1.38,0,2.5,1.12,2.5,2.5s-1.12,2.5-2.5,2.5v3.76c1.38,0,2.5,1.12,2.5,2.5s-1.12,2.5-2.5,2.5v3.76c1.38,0,2.5,1.12,2.5,2.5s-1.12,2.5-2.5,2.5v3.76c1.38,0,2.5,1.12,2.5,2.5s-1.12,2.5-2.5,2.5v3.77c1.38,0,2.5,1.12,2.5,2.49s-1.12,2.51-2.5,2.51v3.76c1.38,0,2.5,1.12,2.5,2.5s-1.12,2.5-2.5,2.5v3.76c1.38,0,2.5,1.12,2.5,2.5s-1.12,2.5-2.5,2.5v3.77c.16,0,.33.01.49.04.16.03.32.08.47.14.15.06.29.14.43.23.14.09.26.2.38.31.11.12.22.25.31.38.09.14.17.28.23.43.06.16.11.31.14.47.03.16.05.33.05.49h3.86c0-1.38,1.12-2.5,2.5-2.5s2.5,1.12,2.5,2.5h3.86c0-1.38,1.12-2.5,2.5-2.5s2.5,1.12,2.5,2.5h3.86c0-1.38,1.12-2.5,2.5-2.5s2.5,1.12,2.5,2.5h3.85c0-1.38,1.12-2.5,2.51-2.5s2.49,1.12,2.49,2.5h3.86c0-1.38,1.12-2.5,2.5-2.5s2.5,1.12,2.5,2.5h3.86c0-1.38,1.12-2.5,2.5-2.5s2.5,1.12,2.5,2.5h3.86c0-1.38,1.12-2.5,2.5-2.5s2.5,1.12,2.5,2.5h3.86c0-.66.26-1.3.73-1.77.46-.46,1.11-.71,1.77-.71v-3.78c-1.38,0-2.5-1.12-2.5-2.5Z"/>
    </g>
    <rect class="cls-3" x="7.09" y="7.09" width="56.69" height="79.37" rx="2.83" ry="2.83"/>
    <g>
      <path class="cls-7" d="M62.32,89.29H8.54c-1.71,0-3.04-1.49-2.86-3.19,1.59-15.02,14.3-26.73,29.75-26.73s28.16,11.71,29.75,26.73c.18,1.7-1.14,3.19-2.86,3.19Z"/>
      <path class="cls-7" d="M15.1,33.45c-4.8-5.01-4.8-13.17,0-18.18,3.51-3.67,8.78-4.85,13.83-2.69,1.15.49,2.2,1.23,3.08,2.15l2.39,2.49c.57.59,1.5.59,2.07,0l2.39-2.49c.88-.92,1.93-1.66,3.08-2.15,5.05-2.16,10.31-.98,13.83,2.69,4.8,5.01,4.8,13.17,0,18.18l-18.26,19.05c-1.14,1.19-3.01,1.19-4.15,0l-18.26-19.05Z"/>
    </g>
    <text class="cls-4" transform="translate(7.21 89.1)"><tspan x="0" y="0">lo</tspan><tspan class="cls-6" x="8.22" y="0">v</tspan><tspan x="13.13" y="0">e </tspan><tspan class="cls-5" x="20.28" y="0">y</tspan><tspan x="25.21" y="0">oursel</tspan><tspan class="cls-8" x="52.23" y="0">f</tspan></text>
  </g>
</svg>