<svg width="115" height="91" viewBox="0 0 115 91" fill="none" xmlns="http://www.w3.org/2000/svg">
<path d="M113.615 55.776C113.97 56.561 114.182 57.3802 114.25 58.2266C114.025 59.3051 114.1 60.6226 114.148 61.7762L112.592 62.9981L111.957 63.0254L111.22 63.3667C111.145 63.3394 111.036 63.3736 110.961 63.3804L110.238 63.6876C110.162 63.6671 110.046 63.6944 109.978 63.7149L107.952 64.6569L107.372 64.6842L106.662 64.9914C106.484 64.9504 106.246 64.9914 106.061 65.0118L104.035 65.6125C103.386 65.4828 102.779 65.5716 102.131 65.6535L101.073 65.9812L100.807 66.0085L99.0942 66.3088C99.0328 66.3429 98.9168 66.3361 98.8417 66.3293L96.8901 66.6843C96.7946 66.6365 96.6718 66.6501 96.5694 66.6433L95.4912 66.9505C95.2319 67.0802 94.8293 67.0938 94.5973 67.3191L92.2568 67.9608H91.9702L91.2195 68.2475L90.9739 68.2748L88.954 68.9096L88.6879 68.9369L87.9782 69.2509C87.9032 69.2304 87.7803 69.2509 87.7053 69.2714L85.3169 70.2134L85.0849 70.2407L84.3957 70.5547L83.7952 70.5752L82.7648 70.9097C82.6829 70.8824 82.5533 70.9097 82.4782 70.9233L81.0862 71.5445L80.8269 71.565L78.1451 72.2066C78.0564 72.2066 77.9472 72.2203 77.879 72.2476C76.9168 72.7118 75.9205 73.135 74.8901 73.5309L73.9416 73.8245L71.9491 74.5003H71.6693C70.7344 74.9235 69.6972 75.0395 68.6804 75.1419H67.4249L66.1079 75.4764C65.9236 75.4354 65.6438 75.4423 65.4664 75.49L65.0843 76.1522H64.7977L64.0607 76.4457L63.8082 76.473L62.1364 76.8007L61.8566 76.8143L60.1848 77.4287C59.8436 77.4492 59.5024 77.5925 59.2363 77.7905L56.5409 78.7598C56.4658 78.7598 56.3498 78.7325 56.2747 78.7598L53.5725 80.0431L53.013 80.4049L51.3275 81.0671L51.0409 81.0807L49.99 81.3742L49.7239 81.3947L48.3182 82.0091L48.0793 82.0364L47.0831 82.3504C47.0148 82.3504 46.8783 82.3845 46.7964 82.2548L42.825 83.388L42.5247 83.3675L41.8287 83.6883H41.5421L40.812 83.9955C40.7369 83.975 40.6209 83.9955 40.5458 84.0023L37.5775 85.0126C37.2226 85.0604 36.6221 85.1696 36.3219 85.3539C36.0489 85.6338 35.7077 85.9136 35.3324 85.6338C35.2437 85.6201 35.0868 85.6065 35.0049 85.6406C34.7934 86.0843 34.343 86.3027 33.6538 86.2891L32.3845 86.6099L31.6544 86.9512C31.3678 86.9512 30.9652 87.1151 30.7468 87.2925L30.0508 87.6202L29.0818 87.9206C27.2394 89.1424 25.3219 89.4496 23.1724 89.5725C23.0837 89.5657 22.9677 89.5725 22.8858 89.5861L20.5725 90.535L19.9447 90.5486L18.2729 90.8626C18.2115 90.8831 18.0886 90.8763 18.0136 90.8626C16.833 91.279 15.6525 90.6237 15.0998 89.552L15.0657 88.9581L14.3901 86.9512C14.3901 86.1594 14.0421 85.388 13.7896 84.6713L13.1141 83.3334L13.0936 83.0535L12.459 81.3742L12.4453 81.0875L11.8244 79.3742L11.8039 79.1148L11.4968 78.398L11.4764 78.1318L11.1761 77.0874L11.1556 76.8212L10.8486 75.8723C10.9304 75.5515 10.8963 75.1897 10.8554 74.8757L10.4937 74.1658V73.8791L10.2003 72.8142L10.173 72.5548L9.85911 71.5991C9.96829 70.8824 9.85911 69.9677 9.50427 69.3328L9.18355 67.9334V67.6536L8.8833 66.6023L8.856 66.3293L8.52164 64.6978C8.52164 64.3292 8.37834 63.7149 8.18045 63.435L7.89385 62.3291L7.8802 62.0766L7.57312 61.0253C7.5936 60.9503 7.57313 60.8342 7.55265 60.7659C7.14322 59.9673 6.85662 59.0867 6.83615 58.1788C6.86345 58.0764 6.92486 57.9467 6.89757 57.8307C6.44037 57.2027 6.01047 55.9467 6.2493 55.2162L5.5328 55.0524C5.9627 54.8135 6.07871 54.4039 5.88764 53.8237C5.25985 53.9124 5.2462 53.7077 5.54645 53.2162C4.89136 52.2127 3.87461 50.1717 4.93913 49.3252C4.62523 49.216 4.44781 49.0249 4.65253 48.7177C3.61531 41.5024 1.86159 34.4919 0.182925 27.3176C-0.397099 24.8397 0.401288 22.0273 2.59173 20.8054L9.08119 17.167L15.7481 15.0236L22.7425 12.8392L30.1122 11.4057C34.7592 10.9074 39.3721 11.631 43.8486 12.5662L44.9608 13.0577C45.4658 13.2829 45.6091 12.3682 45.923 12.0952C50.2698 8.32028 55.4491 6.34069 60.9149 4.79797L67.3634 3.35082C70.5229 2.64089 73.3821 1.94462 76.5756 1.45313C81.7549 0.654469 86.6612 -0.362635 92.1544 0.128851C92.8982 4.08804 94.3448 7.81515 96.0849 11.4672C97.477 14.3956 98.6302 17.2763 100.268 20.0955L102.254 24.1093C104.301 23.1126 106.334 22.8601 108.695 23.297C110.142 23.5632 110.981 25.7544 109.999 27.0855C110.872 27.693 111.391 28.2733 111.247 29.4883C113.267 29.6385 114.612 31.0242 114.782 33.0925C114.837 33.782 115.28 34.7172 114.632 35.3452C114.086 35.8776 113.295 36.5876 112.51 36.7787L108.04 37.8982L109.002 40.7788L111.432 48.8884L113.608 55.7828L113.615 55.776ZM89.0359 49.5846C88.8448 52.0011 90.4826 54.3084 88.879 54.6565C88.1488 54.8135 87.8144 54.4312 87.4664 53.8237C86.3883 51.9465 84.7983 49.7553 85.8492 48.9908C86.0198 48.8679 86.3064 48.8269 86.7363 48.8338C87.0092 48.1238 87.4937 47.4753 87.9919 47.3593C88.7084 47.1886 89.3771 47.3866 90.1414 47.8781C91.0012 46.1715 92.1271 45.6323 93.9627 45.7551L95.3411 45.4002C95.6891 45.3114 96.0235 45.8985 96.2692 46.3695L100.63 54.7589C101.053 55.5644 100.916 56.3221 100.534 57.2573C102.779 56.2129 104.908 55.9876 107.303 55.8101L111.063 54.7794C110.592 53.6326 110.586 52.868 110.272 51.9602L108.702 47.3661C107.583 42.1919 105.754 37.5364 103.782 32.683C101.578 27.2493 99.3535 22.1638 96.467 17.051L92.83 8.85273C91.82 6.57961 90.9875 4.48396 90.5099 1.93097L85.0986 2.17671L75.2791 3.70578C72.802 4.09487 70.6525 4.73653 68.2505 5.2485C60.6147 6.87313 52.5353 8.60016 46.7214 14.2796C47.7177 15.6858 48.5638 17.0919 48.9187 18.7439C49.9218 23.4267 51.6823 27.6862 52.9515 32.2802C54.0638 36.3009 54.8076 40.1372 56.3089 44.0622L61.1947 56.8068L64.8864 66.5068L66.5924 71.4489C68.9398 69.5308 71.9627 68.07 75.245 67.3464C77.3945 66.8754 79.1004 65.7832 81.093 64.9845C83.7884 63.906 86.1426 62.4111 88.7903 61.2847L97.3746 57.6395L96.0576 56.2129L98.8554 55.8374L96.0713 50.1922C95.2388 51.4755 94.3721 52.1308 92.9733 51.6735C93.0347 52.397 92.8914 53.0182 92.4274 53.223C90.8783 53.8851 90.619 50.6495 89.0359 49.5983V49.5846ZM42.9819 75.7904C45.3157 74.8347 47.2878 74.0088 49.5874 73.3603L55.4218 71.7152L59.7139 69.7833C61.0514 69.1826 62.3206 69.1076 63.8492 69.3192L59.9596 59.1072L55.0123 46.1374C53.4429 42.028 52.044 38.1098 51.3002 33.6659L50.0582 29.6794C48.6935 25.2902 46.9329 20.6416 46.1482 15.9383C45.3089 16.3069 45.1178 15.8769 44.6811 15.481C43.5415 14.4502 42.0334 14.2659 40.5527 14.0338C31.2108 12.573 28.0241 13.3921 19.3988 16.0066L11.4013 18.4367C9.58615 18.9896 5.03466 21.4061 3.88826 22.4232C2.65315 23.5222 1.79335 24.9625 2.2096 26.7783L4.87089 38.4989L6.46084 46.8132C7.46394 52.0625 8.84236 56.9638 10.0297 62.1926L13.6804 78.2751L16.2326 85.8454C21.1935 83.6678 25.7927 81.9203 30.7468 80.4595L31.9137 79.6813C33.9131 79.3946 35.6736 78.8008 37.5502 78.0362L43.0092 75.8109L42.9819 75.7904ZM108.354 25.2493C106.628 25.0376 104.765 25.0649 103.127 26.0684L104.369 28.5326C106.171 27.6316 108.259 26.8261 108.354 25.2493ZM104.976 30.4849H104.765L104.976 30.4986H105.413L105.202 30.4849H104.983H104.976ZM107.146 35.9322C108.955 35.4339 111.179 35.6319 112.667 34.2462C113.376 33.584 112.264 31.5089 111.254 31.5567C109.425 31.6522 107.76 32.4714 106.355 33.625L107.146 35.9322ZM94.3312 48.0487L92.9733 47.7552C92.9869 48.4924 93.1097 49.1682 93.5737 49.7348C94.2698 49.5437 94.7406 48.2604 94.3312 48.0487ZM97.3883 59.8103L97.2245 59.9741L97.3883 60.1379L97.552 59.9741L97.3883 59.8103ZM112.326 60.4656C112.326 60.2608 112.162 60.1038 111.964 60.1038C111.766 60.1038 111.602 60.2676 111.602 60.4656C111.602 60.6636 111.766 60.8274 111.964 60.8274C112.162 60.8274 112.326 60.6636 112.326 60.4656ZM102.984 63.5033C102.581 62.6568 102.752 62.4861 102.731 62.0834C102.158 62.5885 101.851 63.0254 101.476 63.7012C102.097 63.8104 102.533 63.7012 102.984 63.5101V63.5033ZM89.2611 63.2439H89.0496L89.2611 63.2575H89.6978L89.4863 63.2439H89.2679H89.2611ZM99.1829 63.7422C98.8281 63.7831 98.5483 64.2473 98.562 64.261C98.6439 64.3838 98.91 64.4589 99.026 64.3907C99.1761 64.3019 99.1898 64.1995 99.1898 64.063C99.2785 64.0698 99.4968 64.1381 99.6742 64.063C99.8244 63.9947 99.8585 63.7558 99.5378 63.551C99.3604 63.435 99.1829 63.394 99.1829 63.7353V63.7422ZM96.7059 64.5818C97.0676 64.3565 96.6786 63.7626 96.4193 63.7763C96.1941 63.7831 95.7915 64.1654 95.6141 64.5613C95.6004 64.7456 96.2146 64.8958 96.7059 64.5818ZM92.8095 65.3805L92.6457 65.5443L92.8095 65.7081L92.9733 65.5443L92.8095 65.3805ZM89.1383 66.575C89.5136 66.0221 89.6228 66.9027 89.5613 66.4931C89.9708 66.2883 90.2301 66.3498 90.66 66.3429C90.6054 65.9197 90.1755 65.6398 89.8821 65.7286C89.6705 65.79 89.4726 66.0767 89.1383 66.5819V66.575ZM85.5489 67.9608C85.8424 67.8242 86.088 67.599 86.0675 67.4897C86.0402 67.3737 85.7059 67.2577 85.4261 67.3259C85.1668 67.3874 84.8461 67.6945 84.8256 67.8515C84.812 67.9539 85.2146 68.1246 85.5557 67.9608H85.5489ZM67.7592 73.176C68.6532 73.3398 68.851 72.6913 68.6804 72.2476C68.2642 72.507 67.9708 72.8005 67.7592 73.176ZM51.4298 78.5277C51.4298 78.3502 51.2865 78.2069 51.1091 78.2069C50.9317 78.2069 50.7884 78.3502 50.7884 78.5277C50.7884 78.7052 50.9317 78.8485 51.1091 78.8485C51.2865 78.8485 51.4298 78.7052 51.4298 78.5277ZM47.8268 79.8383C47.8268 79.6609 47.6835 79.5175 47.5061 79.5175C47.3287 79.5175 47.1854 79.6609 47.1854 79.8383C47.1854 80.0158 47.3287 80.1592 47.5061 80.1592C47.6835 80.1592 47.8268 80.0158 47.8268 79.8383ZM30.1122 85.3607C30.624 85.2174 30.2487 84.958 30.119 84.8351C29.8256 84.5621 29.4844 84.7122 29.4639 84.8829C29.4435 85.0399 29.423 85.2856 29.1637 85.4973C29.075 85.5792 29.4435 85.8522 29.5936 85.6884C29.6823 85.5928 29.8256 85.4358 30.1054 85.3539L30.1122 85.3607ZM17.0309 87.9888C16.9832 87.5792 16.5464 87.7021 16.6352 88.0571C16.5192 88.7943 17.3039 88.6032 17.0309 87.9888Z" fill="#4687C8"/>
<path d="M102.985 63.5028C102.527 63.694 102.091 63.8032 101.477 63.694C101.852 63.0182 102.159 62.5813 102.732 62.0762C102.759 62.4857 102.582 62.6496 102.985 63.496V63.5028Z" fill="#4687C8"/>
<path d="M96.7053 64.5811C96.214 64.8883 95.5999 64.7449 95.6135 64.5606C95.7909 64.1647 96.1935 63.7824 96.4187 63.7756C96.678 63.762 97.067 64.3558 96.7053 64.5811Z" fill="#4687C8"/>
<path d="M85.5508 67.9599C85.2096 68.1169 84.807 67.953 84.8207 67.8506C84.8479 67.6936 85.1687 67.3933 85.4211 67.325C85.7009 67.2568 86.0353 67.3728 86.0626 67.4889C86.0899 67.5981 85.8442 67.8233 85.544 67.9599H85.5508Z" fill="#4687C8"/>
<path d="M67.7578 73.1764C67.9762 72.801 68.2696 72.5074 68.679 72.248C68.8496 72.6986 68.6517 73.3471 67.7578 73.1764Z" fill="#4687C8"/>
<path d="M111.963 60.8271C112.163 60.8271 112.325 60.6651 112.325 60.4653C112.325 60.2655 112.163 60.1035 111.963 60.1035C111.763 60.1035 111.602 60.2655 111.602 60.4653C111.602 60.6651 111.763 60.8271 111.963 60.8271Z" fill="#4687C8"/>
<path d="M99.1947 64.0689C99.1947 64.2054 99.181 64.3078 99.0309 64.3965C98.9149 64.4648 98.6419 64.3897 98.5669 64.2668C98.5532 64.2464 98.833 63.7822 99.1879 63.748C99.4745 63.83 99.4744 63.9392 99.2015 64.0757L99.1947 64.0689Z" fill="#4687C8"/>
<path d="M89.5598 66.4933C89.6212 66.9029 89.512 66.0223 89.1367 66.5752L89.5598 66.4933Z" fill="#4687C8"/>
<path d="M104.977 30.4844H105.196L105.414 30.4912L105.196 30.498H104.977L104.766 30.4912L104.977 30.4844Z" fill="#4687C8"/>
<path d="M89.2613 63.2441H89.4797L89.6912 63.251L89.4797 63.2578H89.2613L89.043 63.251L89.2613 63.2441Z" fill="#4687C8"/>
<path d="M97.3906 59.8027L97.2266 59.9668L97.3906 60.1309L97.5547 59.9668L97.3906 59.8027Z" fill="#4687C8"/>
<path d="M92.8125 65.373L92.6484 65.5371L92.8125 65.7012L92.9765 65.5371L92.8125 65.373Z" fill="#4687C8"/>
<path d="M69.7861 15.5483C68.94 17.364 67.0293 17.9716 65.3097 16.9272C64.7706 17.8214 64.0405 18.4084 63.2899 18.5177C62.007 18.6951 61.2222 18.2037 60.5876 17.2139C59.7688 15.9442 60.0417 14.7769 61.038 13.7598C61.8364 12.9407 62.5734 12.3809 63.8767 13.084C65.2142 10.8177 66.9406 11.2819 69.3153 12.1693C70.1614 11.6573 70.9257 10.1556 72.4065 10.3535L71.2942 8.03263C71.1236 7.67767 71.3829 7.28175 71.4989 7.07014C71.6354 6.8244 72.2768 6.49674 72.5225 6.84487L75.1292 10.5515L76.9375 13.3298C77.1286 13.6233 77.0057 14.1557 76.8624 14.3946C76.4189 15.1319 75.4567 13.6642 74.3581 14.9476C73.1503 16.3606 71.2396 16.8179 69.793 15.5483H69.7861ZM73.703 12.101L71.9015 12.5652C71.2874 12.7222 70.837 13.9646 71.3966 14.1216C72.6317 14.4697 73.5734 13.0089 73.6962 12.101H73.703ZM67.7799 13.8144C67.1658 13.555 66.7222 13.5277 66.0603 13.5619C65.6577 13.9782 65.6918 14.5721 65.958 14.9476C66.2378 15.3435 66.8041 15.4595 67.234 15.2616C67.6639 15.0636 68.0324 14.6131 67.7799 13.8144ZM62.6689 16.4425C63.2762 16.4425 63.2899 15.8145 63.2489 15.4937C63.2216 15.2957 62.9896 14.9885 62.7098 14.9817C62.4301 14.9749 62.198 15.521 62.123 15.7804C62.0684 15.9851 62.2458 16.4493 62.6689 16.4493V16.4425Z" fill="#4687C8"/>
<path d="M79.5566 57.516C79.2085 57.714 78.997 57.1611 79.229 56.8607C78.9288 56.7378 78.8196 56.8607 78.8673 57.202C79.3177 57.243 79.3928 57.5843 79.1335 57.9256C79.229 58.3147 79.4542 58.8949 79.3655 59.3796C79.2358 60.0827 78.4101 60.2601 77.9393 59.9734C77.407 59.6526 77.3866 59.1543 76.8611 58.2601C76.5882 59.6321 76.2061 60.3421 75.278 60.6629C72.8419 61.5025 72.4257 59.3659 71.7433 59.482C70.3717 59.2021 70.0169 56.4238 71.0882 55.4818C71.1837 54.8879 71.7296 54.219 72.3097 54.0551C72.8624 53.8981 73.3878 54.2667 73.6198 54.8197C73.8928 55.0313 74.2476 55.0518 74.6775 54.8879C74.9846 54.9084 75.6465 55.2702 75.899 55.0313C76.3835 54.5808 75.7693 52.5602 76.4381 52.2394L78.0348 51.4612C78.8469 51.0653 79.4201 50.3144 80.3072 50.4372C82.3953 50.7308 85.1657 56.5672 83.3642 57.2907C82.7433 57.5365 82.4362 57.045 81.8971 56.4306C81.8835 57.4 81.7334 58.0689 80.9213 58.3556C80.4709 58.5126 79.8432 58.0826 79.5566 57.5092V57.516ZM81.7606 56.5535C81.9449 54.9289 81.1397 54.1575 80.7166 53.0585C79.5497 51.8298 79.8295 54.2804 81.7606 56.5535Z" fill="#4687C8"/>
<path d="M75.2386 27.018C75.7299 26.6562 75.8868 26.7722 75.7026 27.3593C75.9619 27.5027 75.9278 27.5846 75.6207 27.6255L75.996 28.3696C76.3781 27.8917 76.9377 28.2262 77.2448 28.6768L77.7293 30.2331C77.9135 30.827 76.9786 31.4345 76.3918 31.5438C75.8937 31.6393 75.416 30.984 74.9997 30.6017C74.5903 30.2809 74.2491 29.5232 74.3105 28.9976C74.1536 28.8474 74.0308 28.8542 73.9625 29.0454C74.5084 29.6461 74.836 30.4174 74.9588 31.3594C75.0748 31.7963 75.2454 32.3219 75.1021 32.6428C74.8769 33.1616 74.2491 33.3322 73.8738 33.223C72.9799 32.9704 72.3726 30.1171 70.7758 28.4856C70.8577 31.339 72.9594 34.0694 71.3217 34.4176C69.916 34.7111 68.3806 31.4345 67.1523 29.0795L68.5717 27.5641C69.0425 27.0658 68.9607 26.349 69.5612 26.0487C69.9501 25.8575 70.4414 25.9531 71.0624 26.0145L72.0791 24.936C73.5872 24.622 74.8974 25.6937 75.2454 27.018H75.2386Z" fill="#4687C8"/>
<path d="M59.2442 21.7948C59.4284 21.9996 59.4352 21.8835 59.2646 21.4398L58.0909 19.5353C57.8384 20.293 57.2448 20.7231 56.733 20.8187C55.8118 20.9893 55.0612 20.9893 54.5425 20.3408C53.7237 19.3032 53.2119 18.3612 53.362 17.0847C53.4848 16.0813 53.9693 15.0027 55.0884 14.3542C56.2075 13.7058 58.05 13.8832 58.5413 15.2553C59.1145 16.8731 59.7764 18.3134 60.5748 19.8357L62.3831 23.2693C62.8608 24.1771 62.1716 25.6175 61.1343 25.5492C59.483 25.4468 57.8726 24.143 57.9681 22.6071C57.9954 22.1702 58.2206 21.6651 58.4389 21.5081C58.6164 21.3784 59.0667 21.6241 59.2442 21.7948ZM56.2485 18.88C56.7125 17.7537 56.8695 17.0165 56.7876 15.9994C55.9755 16.0198 55.6071 16.7093 55.4911 17.2349C55.3478 17.897 55.4501 18.7162 56.2485 18.88Z" fill="#4687C8"/>
<path d="M64.8586 37.3257C63.0298 37.8445 62.5862 36.1652 61.6787 33.8853L60.1365 34.4246C59.7339 34.5679 59.379 33.9535 59.3108 33.6668C59.0652 32.5747 60.4231 32.3494 60.7097 31.9671C60.9622 31.6326 60.1911 30.6633 60.8393 29.8237C61.0372 29.5711 61.3784 29.3595 61.7742 29.578C62.1222 29.7691 62.3338 30.3084 62.518 30.793C63.9032 31.2913 64.9678 29.0387 65.9709 29.1547C67.1036 29.2913 66.1005 32.0217 67.8474 33.2027C68.2159 33.4552 68.366 34.0082 68.3251 34.3358C68.291 34.6225 67.9088 35.1891 67.513 35.0935C66.1483 34.7659 65.4113 33.5235 64.8108 32.3904C61.9516 33.0388 65.0292 34.2471 64.8586 37.3325V37.3257Z" fill="#4687C8"/>
<path d="M77.5379 28.403C76.7805 28.5873 76.1322 27.9456 75.7023 27.3586C75.4021 27.3586 75.3133 27.304 75.2383 27.0173C76.9511 26.5121 76.0162 23.7475 78.2408 22.9216C79.2507 22.5461 80.3903 22.6553 80.9703 23.7066C81.6459 24.9216 80.8133 26.4712 79.5305 27.1675C81.4821 28.915 82.3419 26.2596 84.4095 25.7066C85.4672 27.6589 83.1061 29.6112 81.2705 29.816C79.7966 29.9798 78.6502 29.0924 77.5311 28.3962L77.5379 28.403Z" fill="#4687C8"/>
<path d="M72.0178 44.7591C72.1611 44.4792 71.9291 44.2539 71.3354 44.0833L69.7114 43.1754C68.4967 41.7555 70.5507 38.6565 72.1134 38.8612C72.6524 38.9295 73.4918 39.537 73.4986 40.2538C73.4986 40.677 73.2256 41.0934 72.98 41.2641C72.6593 41.4893 71.5129 40.8613 71.4378 41.6395C71.4242 41.817 71.7039 42.1037 71.9701 42.1788L74.6996 43.0184C75.5184 43.271 76.0029 44.0765 75.9415 44.8888C75.8596 45.9127 73.7988 47.0049 72.284 46.6363C71.7722 46.5134 71.158 45.899 70.8987 45.0116C71.2604 44.7386 71.6698 44.7659 72.011 44.7591H72.0178Z" fill="#4687C8"/>
<path d="M104.668 49.611C103.207 49.2901 104.238 48.4505 103.487 45.6927C102.614 42.4776 100.253 43.5493 100.512 41.9793C100.614 41.3786 101.085 41.1192 101.781 41.1465C103.037 41.1874 103.562 42.109 104.258 42.9418C107.329 46.6211 105.971 49.9045 104.668 49.6178V49.611Z" fill="#4687C8"/>
<path d="M70.6662 55.4626C70.9051 55.5854 70.9255 55.9199 70.7413 56.4524C69.6154 57.0804 69.8542 59.2511 71.294 58.903L71.7444 59.4832C71.9627 60.1931 71.8672 60.8075 71.3077 61.2785C70.8232 61.6881 69.9361 61.7836 69.2059 61.2444C67.5887 60.0361 66.9404 57.4012 67.6569 55.5308C67.964 54.7185 68.5099 54.227 69.2196 54.1929C69.9292 54.1588 70.5229 54.7117 70.673 55.4626H70.6662Z" fill="#4687C8"/>
<path d="M86.4168 54.7649C86.4168 55.5976 85.0247 55.2427 84.7108 54.6488L83.1004 51.6316C82.9298 51.3108 83.3256 50.6964 83.4962 50.519C84.2946 49.693 86.4372 52.7033 86.4168 54.758V54.7649Z" fill="#4687C8"/>
<path d="M70.5756 46.2534C70.6371 46.7244 70.173 47.1544 69.7704 47.2363C69.4838 47.2909 69.0949 47.0657 68.7673 46.7039L66.9044 44.6219C66.5359 44.2123 66.7748 43.3659 66.8908 42.9017C67.9689 42.6628 68.4876 43.3113 69.0744 44.1372C69.5452 44.7926 70.4528 45.2158 70.5825 46.2534H70.5756Z" fill="#4687C8"/>
<path d="M100.847 46.7852C101.693 46.403 102.205 47.2016 102.526 47.8023C102.846 48.403 102.253 48.9287 101.796 49.1744C100.984 49.6181 100.417 49.2768 100.137 48.5669C99.9191 48.0208 99.9259 47.2085 100.847 46.7852Z" fill="#4687C8"/>
<path d="M99.3007 45.4265C98.939 45.0306 98.9254 44.621 99.0414 44.3958C99.2529 43.9862 99.6487 43.6859 100.181 43.6722C100.884 43.6585 101.259 44.0749 101.423 44.6415C101.553 45.0852 101.375 45.5972 100.809 45.8429C100.406 46.0204 99.8261 45.9999 99.3007 45.4265Z" fill="#4687C8"/>
<path d="M83.7604 49.6531C83.1804 49.9603 82.6686 49.9467 82.3478 49.5917C81.8429 49.0251 82.1227 48.3152 82.7232 47.9261C83.3236 47.537 83.9446 47.537 84.279 48.0149C84.7225 48.6497 84.5178 49.2572 83.7604 49.6531Z" fill="#4687C8"/>
<path d="M64.4976 27.6118C64.4567 28.3354 63.5355 28.3832 63.2011 28.1852C62.7439 27.9122 62.3208 27.4343 62.6552 26.8336C62.819 26.5401 63.3922 26.3217 63.6105 26.424C63.8835 26.5469 64.5386 26.9292 64.5045 27.6186L64.4976 27.6118Z" fill="#4687C8"/>
<path d="M66.1358 39.9321C66.7704 39.8024 67.1457 39.8024 67.5346 40.2119C67.7803 40.4713 68.0055 41.2563 67.4528 41.386C67.1047 41.7342 66.5315 41.7273 66.1631 41.3519C65.8014 40.6966 65.8492 40.4372 66.1358 39.9321Z" fill="#4687C8"/>
<path d="M59.243 21.7944C59.2021 21.7125 59.2157 21.5692 59.2635 21.4395C59.6115 21.9992 60.3826 22.3951 60.4645 23.2143C59.5296 22.9344 59.4545 22.2518 59.243 21.7876V21.7944Z" fill="#4687C8"/>
<path d="M72.0183 44.758L71.3359 44.0822C71.9364 44.0754 72.4892 44.2938 73.0351 44.6078C72.5642 44.8535 72.2913 44.758 72.0183 44.7648V44.758Z" fill="#4687C8"/>
<path d="M79.5561 57.5159L79.133 57.9255C79.0853 57.7275 78.9829 57.3657 78.8669 57.2019C78.6281 56.6763 78.7236 56.5193 79.2286 56.8606L79.5561 57.5159Z" fill="#4687C8"/>
<path d="M79.2358 56.8614L78.8741 57.2028C78.4033 56.527 78.0484 55.7146 78.3692 54.8887C78.8264 55.701 78.9697 56.3153 79.2358 56.8614Z" fill="#4687C8"/>
<path d="M74.3117 29.0031L73.9636 29.0509L73.6293 28.5389C73.5474 28.4092 73.6293 28.1021 73.8203 28.0816C74.1957 28.0406 74.2434 28.8461 74.3117 29.0031Z" fill="#4687C8"/>
<path d="M75.9886 28.3749C75.702 28.2111 75.586 27.9926 75.6133 27.6309C75.8589 27.7947 75.9886 28.0677 75.9886 28.3749Z" fill="#4687C8"/>
</svg>
