<svg width="1456" height="455" viewBox="0 0 1456 455" fill="none" xmlns="http://www.w3.org/2000/svg">
<path d="M1430.79 2C1443.49 2 1453.79 12.2975 1453.79 25V315.209C1453.79 327.912 1443.49 338.209 1430.79 338.209H1327.14C1312.95 379.834 1319.79 417.422 1368.89 450.793C1341.01 459.143 1249.53 448.3 1233.92 338.209H25C12.2975 338.209 2.00002 327.912 2 315.209V25C2 12.2974 12.2975 2 25 2H1430.79Z" fill="#EDE5D2"/>
<path d="M1453.79 315.209H1455.79V315.209H1453.79ZM1327.14 338.209V336.209C1326.28 336.209 1325.52 336.754 1325.25 337.564L1327.14 338.209ZM1368.89 450.793L1369.47 452.709C1370.21 452.488 1370.75 451.861 1370.87 451.098C1370.99 450.335 1370.66 449.573 1370.02 449.139L1368.89 450.793ZM1233.92 338.209L1235.9 337.928C1235.76 336.942 1234.92 336.209 1233.92 336.209V338.209ZM2 315.209H0V315.209H2ZM1420.75 0C1419.64 0 1418.75 0.89543 1418.75 2C1418.75 3.10457 1419.64 4 1420.75 4V2V0ZM1400.66 4C1401.77 4 1402.66 3.10457 1402.66 2C1402.66 0.89543 1401.77 0 1400.66 0V2V4ZM1380.58 0C1379.48 0 1378.58 0.89543 1378.58 2C1378.58 3.10457 1379.48 4 1380.58 4V2V0ZM1360.5 4C1361.6 4 1362.5 3.10457 1362.5 2C1362.5 0.89543 1361.6 0 1360.5 0V2V4ZM1340.42 0C1339.31 0 1338.42 0.89543 1338.42 2C1338.42 3.10457 1339.31 4 1340.42 4V2V0ZM1320.33 4C1321.44 4 1322.33 3.10457 1322.33 2C1322.33 0.89543 1321.44 0 1320.33 0V2V4ZM1300.25 0C1299.15 0 1298.25 0.89543 1298.25 2C1298.25 3.10457 1299.15 4 1300.25 4V2V0ZM1280.17 4C1281.27 4 1282.17 3.10457 1282.17 2C1282.17 0.89543 1281.27 0 1280.17 0V2V4ZM1260.08 0C1258.98 0 1258.08 0.89543 1258.08 2C1258.08 3.10457 1258.98 4 1260.08 4V2V0ZM1240 4C1241.11 4 1242 3.10457 1242 2C1242 0.89543 1241.11 0 1240 0V2V4ZM1219.92 0C1218.81 0 1217.92 0.89543 1217.92 2C1217.92 3.10457 1218.81 4 1219.92 4V2V0ZM1199.84 4C1200.94 4 1201.84 3.10457 1201.84 2C1201.84 0.89543 1200.94 0 1199.84 0V2V4ZM1179.75 0C1178.65 0 1177.75 0.89543 1177.75 2C1177.75 3.10457 1178.65 4 1179.75 4V2V0ZM1159.67 4C1160.78 4 1161.67 3.10457 1161.67 2C1161.67 0.89543 1160.78 0 1159.67 0V2V4ZM1139.59 0C1138.48 0 1137.59 0.89543 1137.59 2C1137.59 3.10457 1138.48 4 1139.59 4V2V0ZM1119.51 4C1120.61 4 1121.51 3.10457 1121.51 2C1121.51 0.89543 1120.61 0 1119.51 0V2V4ZM1099.42 0C1098.32 0 1097.42 0.89543 1097.42 2C1097.42 3.10457 1098.32 4 1099.42 4V2V0ZM1079.34 4C1080.44 4 1081.34 3.10457 1081.34 2C1081.34 0.89543 1080.44 0 1079.34 0V2V4ZM1059.26 0C1058.15 0 1057.26 0.89543 1057.26 2C1057.26 3.10457 1058.15 4 1059.26 4V2V0ZM1039.18 4C1040.28 4 1041.18 3.10457 1041.18 2C1041.18 0.89543 1040.28 0 1039.18 0V2V4ZM1019.09 0C1017.99 0 1017.09 0.89543 1017.09 2C1017.09 3.10457 1017.99 4 1019.09 4V2V0ZM999.01 4C1000.11 4 1001.01 3.10457 1001.01 2C1001.01 0.89543 1000.11 0 999.01 0V2V4ZM978.927 0C977.822 0 976.927 0.89543 976.927 2C976.927 3.10457 977.822 4 978.927 4V2V0ZM958.844 4C959.949 4 960.844 3.10457 960.844 2C960.844 0.89543 959.949 0 958.844 0V2V4ZM938.762 0C937.657 0 936.762 0.89543 936.762 2C936.762 3.10457 937.657 4 938.762 4V2V0ZM918.679 4C919.784 4 920.679 3.10457 920.679 2C920.679 0.89543 919.784 0 918.679 0V2V4ZM898.596 0C897.492 0 896.596 0.89543 896.596 2C896.596 3.10457 897.492 4 898.596 4V2V0ZM878.514 4C879.618 4 880.514 3.10457 880.514 2C880.514 0.89543 879.618 0 878.514 0V2V4ZM858.431 0C857.326 0 856.431 0.89543 856.431 2C856.431 3.10457 857.326 4 858.431 4V2V0ZM838.348 4C839.453 4 840.348 3.10457 840.348 2C840.348 0.89543 839.453 0 838.348 0V2V4ZM818.266 0C817.161 0 816.266 0.89543 816.266 2C816.266 3.10457 817.161 4 818.266 4V2V0ZM798.183 4C799.288 4 800.183 3.10457 800.183 2C800.183 0.89543 799.288 0 798.183 0V2V4ZM778.1 0C776.996 0 776.1 0.89543 776.1 2C776.1 3.10457 776.996 4 778.1 4V2V0ZM758.018 4C759.122 4 760.018 3.10457 760.018 2C760.018 0.89543 759.122 0 758.018 0V2V4ZM737.935 0C736.831 0 735.935 0.89543 735.935 2C735.935 3.10457 736.831 4 737.935 4V2V0ZM717.853 4C718.957 4 719.853 3.10457 719.853 2C719.853 0.89543 718.957 0 717.853 0V2V4ZM697.77 0C696.665 0 695.77 0.89543 695.77 2C695.77 3.10457 696.665 4 697.77 4V2V0ZM677.687 4C678.792 4 679.687 3.10457 679.687 2C679.687 0.89543 678.792 0 677.687 0V2V4ZM657.605 0C656.5 0 655.605 0.89543 655.605 2C655.605 3.10457 656.5 4 657.605 4V2V0ZM637.522 4C638.627 4 639.522 3.10457 639.522 2C639.522 0.89543 638.627 0 637.522 0V2V4ZM617.439 0C616.335 0 615.439 0.89543 615.439 2C615.439 3.10457 616.335 4 617.439 4V2V0ZM597.357 4C598.461 4 599.357 3.10457 599.357 2C599.357 0.89543 598.461 0 597.357 0V2V4ZM577.274 0C576.169 0 575.274 0.89543 575.274 2C575.274 3.10457 576.169 4 577.274 4V2V0ZM557.191 4C558.296 4 559.191 3.10457 559.191 2C559.191 0.89543 558.296 0 557.191 0V2V4ZM537.109 0C536.004 0 535.109 0.89543 535.109 2C535.109 3.10457 536.004 4 537.109 4V2V0ZM517.026 4C518.131 4 519.026 3.10457 519.026 2C519.026 0.89543 518.131 0 517.026 0V2V4ZM496.943 0C495.839 0 494.943 0.89543 494.943 2C494.943 3.10457 495.839 4 496.943 4V2V0ZM476.861 4C477.965 4 478.861 3.10457 478.861 2C478.861 0.89543 477.965 0 476.861 0V2V4ZM456.778 0C455.674 0 454.778 0.89543 454.778 2C454.778 3.10457 455.674 4 456.778 4V2V0ZM436.696 4C437.8 4 438.696 3.10457 438.696 2C438.696 0.89543 437.8 0 436.696 0V2V4ZM416.613 0C415.508 0 414.613 0.89543 414.613 2C414.613 3.10457 415.508 4 416.613 4V2V0ZM396.53 4C397.635 4 398.53 3.10457 398.53 2C398.53 0.89543 397.635 0 396.53 0V2V4ZM376.448 0C375.343 0 374.448 0.89543 374.448 2C374.448 3.10457 375.343 4 376.448 4V2V0ZM356.365 4C357.47 4 358.365 3.10457 358.365 2C358.365 0.89543 357.47 0 356.365 0V2V4ZM336.282 0C335.178 0 334.282 0.89543 334.282 2C334.282 3.10457 335.178 4 336.282 4V2V0ZM316.2 4C317.304 4 318.2 3.10457 318.2 2C318.2 0.89543 317.304 0 316.2 0V2V4ZM296.117 0C295.013 0 294.117 0.89543 294.117 2C294.117 3.10457 295.013 4 296.117 4V2V0ZM276.034 4C277.139 4 278.034 3.10457 278.034 2C278.034 0.89543 277.139 0 276.034 0V2V4ZM255.952 0C254.847 0 253.952 0.89543 253.952 2C253.952 3.10457 254.847 4 255.952 4V2V0ZM235.869 4C236.974 4 237.869 3.10457 237.869 2C237.869 0.89543 236.974 0 235.869 0V2V4ZM215.786 0C214.682 0 213.786 0.89543 213.786 2C213.786 3.10457 214.682 4 215.786 4V2V0ZM195.704 4C196.808 4 197.704 3.10457 197.704 2C197.704 0.89543 196.808 0 195.704 0V2V4ZM175.621 0C174.517 0 173.621 0.89543 173.621 2C173.621 3.10457 174.517 4 175.621 4V2V0ZM155.539 4C156.643 4 157.539 3.10457 157.539 2C157.539 0.89543 156.643 0 155.539 0V2V4ZM135.456 0C134.351 0 133.456 0.89543 133.456 2C133.456 3.10457 134.351 4 135.456 4V2V0ZM115.373 4C116.478 4 117.373 3.10457 117.373 2C117.373 0.89543 116.478 0 115.373 0V2V4ZM95.2906 0C94.1861 0 93.2906 0.89543 93.2906 2C93.2906 3.10457 94.1861 4 95.2906 4V2V0ZM75.208 4C76.3126 4 77.208 3.10457 77.208 2C77.208 0.89543 76.3126 0 75.208 0V2V4ZM55.1254 0C54.0208 0 53.1254 0.89543 53.1254 2C53.1254 3.10457 54.0208 4 55.1254 4V2V0ZM35.0427 4C36.1473 4 37.0427 3.10457 37.0427 2C37.0427 0.89543 36.1473 0 35.0427 0V2V4ZM15.4298 1.8978C14.4095 2.32091 13.9253 3.49104 14.3484 4.51136C14.7715 5.53168 15.9417 6.01581 16.962 5.5927L16.1959 3.74525L15.4298 1.8978ZM5.5927 16.962C6.01581 15.9417 5.53168 14.7715 4.51136 14.3484C3.49104 13.9253 2.32091 14.4095 1.8978 15.4298L3.74525 16.1959L5.5927 16.962ZM0 35.3646C0 36.4692 0.89543 37.3646 2 37.3646C3.10457 37.3646 4 36.4692 4 35.3646H2H0ZM4 56.0938C4 54.9893 3.10457 54.0938 2 54.0938C0.89543 54.0938 0 54.9893 0 56.0938H2H4ZM0 76.823C0 77.9276 0.89543 78.823 2 78.823C3.10457 78.823 4 77.9276 4 76.823H2H0ZM4 97.5522C4 96.4477 3.10457 95.5522 2 95.5522C0.89543 95.5522 0 96.4477 0 97.5522H2H4ZM0 118.281C0 119.386 0.89543 120.281 2 120.281C3.10457 120.281 4 119.386 4 118.281H2H0ZM4 139.011C4 137.906 3.10457 137.011 2 137.011C0.89543 137.011 0 137.906 0 139.011H2H4ZM0 159.74C0 160.844 0.89543 161.74 2 161.74C3.10457 161.74 4 160.844 4 159.74H2H0ZM4 180.469C4 179.365 3.10457 178.469 2 178.469C0.89543 178.469 0 179.365 0 180.469H2H4ZM0 201.198C0 202.303 0.89543 203.198 2 203.198C3.10457 203.198 4 202.303 4 201.198H2H0ZM4 221.928C4 220.823 3.10457 219.928 2 219.928C0.89543 219.928 0 220.823 0 221.928H2H4ZM0 242.657C0 243.761 0.89543 244.657 2 244.657C3.10457 244.657 4 243.761 4 242.657H2H0ZM4 263.386C4 262.281 3.10457 261.386 2 261.386C0.89543 261.386 0 262.281 0 263.386H2H4ZM0 284.115C0 285.22 0.89543 286.115 2 286.115C3.10457 286.115 4 285.22 4 284.115H2H0ZM4 304.844C4 303.74 3.10457 302.844 2 302.844C0.89543 302.844 0 303.74 0 304.844H2H4ZM1.89781 324.779C2.32092 325.8 3.49105 326.284 4.51137 325.861C5.53169 325.437 6.01582 324.267 5.59271 323.247L3.74526 324.013L1.89781 324.779ZM16.962 334.616C15.9417 334.193 14.7715 334.677 14.3484 335.698C13.9253 336.718 14.4095 337.888 15.4298 338.311L16.1959 336.464L16.962 334.616ZM35.0744 340.209C36.1789 340.209 37.0744 339.314 37.0744 338.209C37.0744 337.104 36.1789 336.209 35.0744 336.209V338.209V340.209ZM55.2231 336.209C54.1185 336.209 53.2231 337.104 53.2231 338.209C53.2231 339.314 54.1185 340.209 55.2231 340.209V338.209V336.209ZM75.3718 340.209C76.4764 340.209 77.3718 339.314 77.3718 338.209C77.3718 337.104 76.4764 336.209 75.3718 336.209V338.209V340.209ZM95.5206 336.209C94.416 336.209 93.5206 337.104 93.5206 338.209C93.5206 339.314 94.416 340.209 95.5206 340.209V338.209V336.209ZM115.669 340.209C116.774 340.209 117.669 339.314 117.669 338.209C117.669 337.104 116.774 336.209 115.669 336.209V338.209V340.209ZM135.818 336.209C134.713 336.209 133.818 337.104 133.818 338.209C133.818 339.314 134.713 340.209 135.818 340.209V338.209V336.209ZM155.967 340.209C157.071 340.209 157.967 339.314 157.967 338.209C157.967 337.104 157.071 336.209 155.967 336.209V338.209V340.209ZM176.115 336.209C175.011 336.209 174.115 337.104 174.115 338.209C174.115 339.314 175.011 340.209 176.115 340.209V338.209V336.209ZM196.264 340.209C197.369 340.209 198.264 339.314 198.264 338.209C198.264 337.104 197.369 336.209 196.264 336.209V338.209V340.209ZM216.413 336.209C215.308 336.209 214.413 337.104 214.413 338.209C214.413 339.314 215.308 340.209 216.413 340.209V338.209V336.209ZM236.562 340.209C237.666 340.209 238.562 339.314 238.562 338.209C238.562 337.104 237.666 336.209 236.562 336.209V338.209V340.209ZM256.71 336.209C255.606 336.209 254.71 337.104 254.71 338.209C254.71 339.314 255.606 340.209 256.71 340.209V338.209V336.209ZM276.859 340.209C277.964 340.209 278.859 339.314 278.859 338.209C278.859 337.104 277.964 336.209 276.859 336.209V338.209V340.209ZM297.008 336.209C295.903 336.209 295.008 337.104 295.008 338.209C295.008 339.314 295.903 340.209 297.008 340.209V338.209V336.209ZM317.157 340.209C318.261 340.209 319.157 339.314 319.157 338.209C319.157 337.104 318.261 336.209 317.157 336.209V338.209V340.209ZM337.305 336.209C336.201 336.209 335.305 337.104 335.305 338.209C335.305 339.314 336.201 340.209 337.305 340.209V338.209V336.209ZM357.454 340.209C358.559 340.209 359.454 339.314 359.454 338.209C359.454 337.104 358.559 336.209 357.454 336.209V338.209V340.209ZM377.603 336.209C376.498 336.209 375.603 337.104 375.603 338.209C375.603 339.314 376.498 340.209 377.603 340.209V338.209V336.209ZM397.752 340.209C398.856 340.209 399.752 339.314 399.752 338.209C399.752 337.104 398.856 336.209 397.752 336.209V338.209V340.209ZM417.9 336.209C416.796 336.209 415.9 337.104 415.9 338.209C415.9 339.314 416.796 340.209 417.9 340.209V338.209V336.209ZM438.049 340.209C439.154 340.209 440.049 339.314 440.049 338.209C440.049 337.104 439.154 336.209 438.049 336.209V338.209V340.209ZM458.198 336.209C457.093 336.209 456.198 337.104 456.198 338.209C456.198 339.314 457.093 340.209 458.198 340.209V338.209V336.209ZM478.347 340.209C479.451 340.209 480.347 339.314 480.347 338.209C480.347 337.104 479.451 336.209 478.347 336.209V338.209V340.209ZM498.495 336.209C497.391 336.209 496.495 337.104 496.495 338.209C496.495 339.314 497.391 340.209 498.495 340.209V338.209V336.209ZM518.644 340.209C519.749 340.209 520.644 339.314 520.644 338.209C520.644 337.104 519.749 336.209 518.644 336.209V338.209V340.209ZM538.793 336.209C537.688 336.209 536.793 337.104 536.793 338.209C536.793 339.314 537.688 340.209 538.793 340.209V338.209V336.209ZM558.941 340.209C560.046 340.209 560.941 339.314 560.941 338.209C560.941 337.104 560.046 336.209 558.941 336.209V338.209V340.209ZM579.09 336.209C577.986 336.209 577.09 337.104 577.09 338.209C577.09 339.314 577.986 340.209 579.09 340.209V338.209V336.209ZM599.239 340.209C600.344 340.209 601.239 339.314 601.239 338.209C601.239 337.104 600.344 336.209 599.239 336.209V338.209V340.209ZM619.388 336.209C618.283 336.209 617.388 337.104 617.388 338.209C617.388 339.314 618.283 340.209 619.388 340.209V338.209V336.209ZM639.536 340.209C640.641 340.209 641.536 339.314 641.536 338.209C641.536 337.104 640.641 336.209 639.536 336.209V338.209V340.209ZM659.685 336.209C658.581 336.209 657.685 337.104 657.685 338.209C657.685 339.314 658.581 340.209 659.685 340.209V338.209V336.209ZM679.834 340.209C680.938 340.209 681.834 339.314 681.834 338.209C681.834 337.104 680.938 336.209 679.834 336.209V338.209V340.209ZM699.983 336.209C698.878 336.209 697.983 337.104 697.983 338.209C697.983 339.314 698.878 340.209 699.983 340.209V338.209V336.209ZM720.131 340.209C721.236 340.209 722.131 339.314 722.131 338.209C722.131 337.104 721.236 336.209 720.131 336.209V338.209V340.209ZM740.28 336.209C739.176 336.209 738.28 337.104 738.28 338.209C738.28 339.314 739.176 340.209 740.28 340.209V338.209V336.209ZM760.429 340.209C761.533 340.209 762.429 339.314 762.429 338.209C762.429 337.104 761.533 336.209 760.429 336.209V338.209V340.209ZM780.578 336.209C779.473 336.209 778.578 337.104 778.578 338.209C778.578 339.314 779.473 340.209 780.578 340.209V338.209V336.209ZM800.726 340.209C801.831 340.209 802.726 339.314 802.726 338.209C802.726 337.104 801.831 336.209 800.726 336.209V338.209V340.209ZM820.875 336.209C819.771 336.209 818.875 337.104 818.875 338.209C818.875 339.314 819.771 340.209 820.875 340.209V338.209V336.209ZM841.024 340.209C842.128 340.209 843.024 339.314 843.024 338.209C843.024 337.104 842.128 336.209 841.024 336.209V338.209V340.209ZM861.173 336.209C860.068 336.209 859.173 337.104 859.173 338.209C859.173 339.314 860.068 340.209 861.173 340.209V338.209V336.209ZM881.321 340.209C882.426 340.209 883.321 339.314 883.321 338.209C883.321 337.104 882.426 336.209 881.321 336.209V338.209V340.209ZM901.47 336.209C900.366 336.209 899.47 337.104 899.47 338.209C899.47 339.314 900.366 340.209 901.47 340.209V338.209V336.209ZM921.619 340.209C922.723 340.209 923.619 339.314 923.619 338.209C923.619 337.104 922.723 336.209 921.619 336.209V338.209V340.209ZM941.768 336.209C940.663 336.209 939.768 337.104 939.768 338.209C939.768 339.314 940.663 340.209 941.768 340.209V338.209V336.209ZM961.916 340.209C963.021 340.209 963.916 339.314 963.916 338.209C963.916 337.104 963.021 336.209 961.916 336.209V338.209V340.209ZM982.065 336.209C980.961 336.209 980.065 337.104 980.065 338.209C980.065 339.314 980.961 340.209 982.065 340.209V338.209V336.209ZM1002.21 340.209C1003.32 340.209 1004.21 339.314 1004.21 338.209C1004.21 337.104 1003.32 336.209 1002.21 336.209V338.209V340.209ZM1022.36 336.209C1021.26 336.209 1020.36 337.104 1020.36 338.209C1020.36 339.314 1021.26 340.209 1022.36 340.209V338.209V336.209ZM1042.51 340.209C1043.62 340.209 1044.51 339.314 1044.51 338.209C1044.51 337.104 1043.62 336.209 1042.51 336.209V338.209V340.209ZM1062.66 336.209C1061.56 336.209 1060.66 337.104 1060.66 338.209C1060.66 339.314 1061.56 340.209 1062.66 340.209V338.209V336.209ZM1082.81 340.209C1083.91 340.209 1084.81 339.314 1084.81 338.209C1084.81 337.104 1083.91 336.209 1082.81 336.209V338.209V340.209ZM1102.96 336.209C1101.85 336.209 1100.96 337.104 1100.96 338.209C1100.96 339.314 1101.85 340.209 1102.96 340.209V338.209V336.209ZM1123.11 340.209C1124.21 340.209 1125.11 339.314 1125.11 338.209C1125.11 337.104 1124.21 336.209 1123.11 336.209V338.209V340.209ZM1143.25 336.209C1142.15 336.209 1141.25 337.104 1141.25 338.209C1141.25 339.314 1142.15 340.209 1143.25 340.209V338.209V336.209ZM1163.4 340.209C1164.51 340.209 1165.4 339.314 1165.4 338.209C1165.4 337.104 1164.51 336.209 1163.4 336.209V338.209V340.209ZM1183.55 336.209C1182.45 336.209 1181.55 337.104 1181.55 338.209C1181.55 339.314 1182.45 340.209 1183.55 340.209V338.209V336.209ZM1203.7 340.209C1204.81 340.209 1205.7 339.314 1205.7 338.209C1205.7 337.104 1204.81 336.209 1203.7 336.209V338.209V340.209ZM1223.85 336.209C1222.74 336.209 1221.85 337.104 1221.85 338.209C1221.85 339.314 1222.74 340.209 1223.85 340.209V338.209V336.209ZM1233.59 348.358C1233.8 349.443 1234.85 350.152 1235.93 349.943C1237.02 349.734 1237.73 348.685 1237.52 347.6L1235.55 347.979L1233.59 348.358ZM1242.28 366.579C1241.95 365.525 1240.83 364.939 1239.77 365.27C1238.72 365.602 1238.13 366.724 1238.46 367.778L1240.37 367.178L1242.28 366.579ZM1245.73 386.498C1246.2 387.498 1247.39 387.927 1248.39 387.457C1249.39 386.987 1249.82 385.796 1249.35 384.796L1247.54 385.647L1245.73 386.498ZM1258.93 401.715C1258.32 400.8 1257.07 400.56 1256.16 401.178C1255.24 401.797 1255 403.04 1255.62 403.955L1257.28 402.835L1258.93 401.715ZM1268.26 419.619C1269.03 420.415 1270.29 420.44 1271.09 419.675C1271.89 418.91 1271.91 417.644 1271.15 416.847L1269.7 418.233L1268.26 419.619ZM1285.78 429.6C1284.89 428.952 1283.64 429.151 1282.99 430.045C1282.34 430.939 1282.54 432.189 1283.44 432.838L1284.61 431.219L1285.78 429.6ZM1300.69 443.169C1301.69 443.652 1302.89 443.237 1303.37 442.244C1303.85 441.25 1303.44 440.054 1302.44 439.571L1301.57 441.37L1300.69 443.169ZM1320.6 446.544C1319.54 446.236 1318.43 446.847 1318.12 447.908C1317.81 448.969 1318.42 450.078 1319.48 450.386L1320.04 448.465L1320.6 446.544ZM1339.21 454.334C1340.31 454.456 1341.3 453.666 1341.42 452.568C1341.54 451.47 1340.75 450.481 1339.65 450.359L1339.43 452.346L1339.21 454.334ZM1358.98 450.611C1357.89 450.721 1357.08 451.702 1357.2 452.801C1357.31 453.9 1358.29 454.701 1359.39 454.59L1359.18 452.601L1358.98 450.611ZM1361.26 442.795C1360.39 442.119 1359.13 442.279 1358.45 443.153C1357.78 444.026 1357.94 445.282 1358.81 445.958L1360.04 444.377L1361.26 442.795ZM1342.35 431.076C1343.11 431.885 1344.37 431.93 1345.18 431.178C1345.99 430.426 1346.03 429.16 1345.28 428.352L1343.82 429.714L1342.35 431.076ZM1332.52 411.227C1331.97 410.268 1330.75 409.935 1329.79 410.484C1328.83 411.032 1328.5 412.254 1329.05 413.213L1330.78 412.22L1332.52 411.227ZM1320.76 392.44C1321.02 393.514 1322.09 394.177 1323.17 393.921C1324.24 393.664 1324.91 392.585 1324.65 391.511L1322.7 391.975L1320.76 392.44ZM1322.69 370.352C1322.74 369.248 1321.88 368.317 1320.77 368.271C1319.67 368.225 1318.74 369.083 1318.69 370.187L1320.69 370.269L1322.69 370.352ZM1322.06 348.194C1321.79 349.264 1322.44 350.353 1323.51 350.627C1324.58 350.901 1325.67 350.255 1325.94 349.185L1324 348.689L1322.06 348.194ZM1335.78 340.209C1336.88 340.209 1337.78 339.314 1337.78 338.209C1337.78 337.104 1336.88 336.209 1335.78 336.209V338.209V340.209ZM1353.05 336.209C1351.95 336.209 1351.05 337.104 1351.05 338.209C1351.05 339.314 1351.95 340.209 1353.05 340.209V338.209V336.209ZM1370.33 340.209C1371.43 340.209 1372.33 339.314 1372.33 338.209C1372.33 337.104 1371.43 336.209 1370.33 336.209V338.209V340.209ZM1387.6 336.209C1386.5 336.209 1385.6 337.104 1385.6 338.209C1385.6 339.314 1386.5 340.209 1387.6 340.209V338.209V336.209ZM1404.88 340.209C1405.98 340.209 1406.88 339.314 1406.88 338.209C1406.88 337.104 1405.98 336.209 1404.88 336.209V338.209V340.209ZM1422.15 336.209C1421.05 336.209 1420.15 337.104 1420.15 338.209C1420.15 339.314 1421.05 340.209 1422.15 340.209V338.209V336.209ZM1440.36 338.311C1441.38 337.888 1441.86 336.718 1441.44 335.698C1441.02 334.677 1439.85 334.193 1438.83 334.616L1439.59 336.464L1440.36 338.311ZM1450.19 323.247C1449.77 324.267 1450.26 325.437 1451.28 325.861C1452.3 326.284 1453.47 325.8 1453.89 324.779L1452.04 324.013L1450.19 323.247ZM1455.79 304.844C1455.79 303.74 1454.89 302.844 1453.79 302.844C1452.68 302.844 1451.79 303.74 1451.79 304.844H1453.79H1455.79ZM1451.79 284.115C1451.79 285.22 1452.68 286.115 1453.79 286.115C1454.89 286.115 1455.79 285.22 1455.79 284.115H1453.79H1451.79ZM1455.79 263.386C1455.79 262.281 1454.89 261.386 1453.79 261.386C1452.68 261.386 1451.79 262.281 1451.79 263.386H1453.79H1455.79ZM1451.79 242.657C1451.79 243.761 1452.68 244.657 1453.79 244.657C1454.89 244.657 1455.79 243.761 1455.79 242.657H1453.79H1451.79ZM1455.79 221.928C1455.79 220.823 1454.89 219.928 1453.79 219.928C1452.68 219.928 1451.79 220.823 1451.79 221.928H1453.79H1455.79ZM1451.79 201.198C1451.79 202.303 1452.68 203.198 1453.79 203.198C1454.89 203.198 1455.79 202.303 1455.79 201.198H1453.79H1451.79ZM1455.79 180.469C1455.79 179.365 1454.89 178.469 1453.79 178.469C1452.68 178.469 1451.79 179.365 1451.79 180.469H1453.79H1455.79ZM1451.79 159.74C1451.79 160.844 1452.68 161.74 1453.79 161.74C1454.89 161.74 1455.79 160.844 1455.79 159.74H1453.79H1451.79ZM1455.79 139.011C1455.79 137.906 1454.89 137.011 1453.79 137.011C1452.68 137.011 1451.79 137.906 1451.79 139.011H1453.79H1455.79ZM1451.79 118.281C1451.79 119.386 1452.68 120.281 1453.79 120.281C1454.89 120.281 1455.79 119.386 1455.79 118.281H1453.79H1451.79ZM1455.79 97.5522C1455.79 96.4476 1454.89 95.5522 1453.79 95.5522C1452.68 95.5522 1451.79 96.4476 1451.79 97.5522H1453.79H1455.79ZM1451.79 76.823C1451.79 77.9276 1452.68 78.823 1453.79 78.823C1454.89 78.823 1455.79 77.9276 1455.79 76.823H1453.79H1451.79ZM1455.79 56.0938C1455.79 54.9892 1454.89 54.0938 1453.79 54.0938C1452.68 54.0938 1451.79 54.9892 1451.79 56.0938H1453.79H1455.79ZM1451.79 35.3646C1451.79 36.4691 1452.68 37.3646 1453.79 37.3646C1454.89 37.3646 1455.79 36.4691 1455.79 35.3646H1453.79H1451.79ZM1453.89 15.4298C1453.47 14.4095 1452.3 13.9253 1451.28 14.3484C1450.26 14.7715 1449.77 15.9417 1450.19 16.962L1452.04 16.1959L1453.89 15.4298ZM1438.83 5.59271C1439.85 6.01582 1441.02 5.53169 1441.44 4.51137C1441.86 3.49105 1441.38 2.32092 1440.36 1.89781L1439.59 3.74526L1438.83 5.59271ZM1430.79 2V0H1420.75V2V4H1430.79V2ZM1400.66 2V0H1380.58V2V4H1400.66V2ZM1360.5 2V0H1340.42V2V4H1360.5V2ZM1320.33 2V0H1300.25V2V4H1320.33V2ZM1280.17 2V0H1260.08V2V4H1280.17V2ZM1240 2V0H1219.92V2V4H1240V2ZM1199.84 2V0H1179.75V2V4H1199.84V2ZM1159.67 2V0H1139.59V2V4H1159.67V2ZM1119.51 2V0H1099.42V2V4H1119.51V2ZM1079.34 2V0H1059.26V2V4H1079.34V2ZM1039.18 2V0H1019.09V2V4H1039.18V2ZM999.01 2V0H978.927V2V4H999.01V2ZM958.844 2V0H938.762V2V4H958.844V2ZM918.679 2V0H898.596V2V4H918.679V2ZM878.514 2V0H858.431V2V4H878.514V2ZM838.348 2V0H818.266V2V4H838.348V2ZM798.183 2V0H778.1V2V4H798.183V2ZM758.018 2V0H737.935V2V4H758.018V2ZM717.853 2V0H697.77V2V4H717.853V2ZM677.687 2V0H657.605V2V4H677.687V2ZM637.522 2V0H617.439V2V4H637.522V2ZM597.357 2V0H577.274V2V4H597.357V2ZM557.191 2V0H537.109V2V4H557.191V2ZM517.026 2V0H496.943V2V4H517.026V2ZM476.861 2V0H456.778V2V4H476.861V2ZM436.696 2V0H416.613V2V4H436.696V2ZM396.53 2V0H376.448V2V4H396.53V2ZM356.365 2V0H336.282V2V4H356.365V2ZM316.2 2V0H296.117V2V4H316.2V2ZM276.034 2V0H255.952V2V4H276.034V2ZM235.869 2V0H215.786V2V4H235.869V2ZM195.704 2V0H175.621V2V4H195.704V2ZM155.539 2V0H135.456V2V4H155.539V2ZM115.373 2V0H95.2906V2V4H115.373V2ZM75.208 2V0H55.1254V2V4H75.208V2ZM35.0427 2V0H25V2V4H35.0427V2ZM25 2V0C21.6139 0 18.3802 0.67429 15.4298 1.8978L16.1959 3.74525L16.962 5.5927C19.4353 4.56707 22.1489 4 25 4V2ZM3.74525 16.1959L1.8978 15.4298C0.67429 18.3802 0 21.6139 0 25H2H4C4 22.1489 4.56707 19.4353 5.5927 16.962L3.74525 16.1959ZM2 25H0V35.3646H2H4V25H2ZM2 56.0938H0V76.823H2H4V56.0938H2ZM2 97.5522H0V118.281H2H4V97.5522H2ZM2 139.011H0V159.74H2H4V139.011H2ZM2 180.469H0V201.198H2H4V180.469H2ZM2 221.928H0V242.657H2H4V221.928H2ZM2 263.386H0V284.115H2H4V263.386H2ZM2 304.844H0V315.209H2H4V304.844H2ZM2 315.209H0C4.41074e-06 318.595 0.674298 321.829 1.89781 324.779L3.74526 324.013L5.59271 323.247C4.56708 320.774 4 318.06 4 315.209H2ZM16.1959 336.464L15.4298 338.311C18.3802 339.535 21.6139 340.209 25 340.209V338.209V336.209C22.1489 336.209 19.4353 335.642 16.962 334.616L16.1959 336.464ZM25 338.209V340.209H35.0744V338.209V336.209H25V338.209ZM55.2231 338.209V340.209H75.3718V338.209V336.209H55.2231V338.209ZM95.5206 338.209V340.209H115.669V338.209V336.209H95.5206V338.209ZM135.818 338.209V340.209H155.967V338.209V336.209H135.818V338.209ZM176.115 338.209V340.209H196.264V338.209V336.209H176.115V338.209ZM216.413 338.209V340.209H236.562V338.209V336.209H216.413V338.209ZM256.71 338.209V340.209H276.859V338.209V336.209H256.71V338.209ZM297.008 338.209V340.209H317.157V338.209V336.209H297.008V338.209ZM337.305 338.209V340.209H357.454V338.209V336.209H337.305V338.209ZM377.603 338.209V340.209H397.752V338.209V336.209H377.603V338.209ZM417.9 338.209V340.209H438.049V338.209V336.209H417.9V338.209ZM458.198 338.209V340.209H478.347V338.209V336.209H458.198V338.209ZM498.495 338.209V340.209H518.644V338.209V336.209H498.495V338.209ZM538.793 338.209V340.209H558.941V338.209V336.209H538.793V338.209ZM579.09 338.209V340.209H599.239V338.209V336.209H579.09V338.209ZM619.388 338.209V340.209H639.536V338.209V336.209H619.388V338.209ZM659.685 338.209V340.209H679.834V338.209V336.209H659.685V338.209ZM699.983 338.209V340.209H720.131V338.209V336.209H699.983V338.209ZM740.28 338.209V340.209H760.429V338.209V336.209H740.28V338.209ZM780.578 338.209V340.209H800.726V338.209V336.209H780.578V338.209ZM820.875 338.209V340.209H841.024V338.209V336.209H820.875V338.209ZM861.173 338.209V340.209H881.321V338.209V336.209H861.173V338.209ZM901.47 338.209V340.209H921.619V338.209V336.209H901.47V338.209ZM941.768 338.209V340.209H961.916V338.209V336.209H941.768V338.209ZM982.065 338.209V340.209H1002.21V338.209V336.209H982.065V338.209ZM1022.36 338.209V340.209H1042.51V338.209V336.209H1022.36V338.209ZM1062.66 338.209V340.209H1082.81V338.209V336.209H1062.66V338.209ZM1102.96 338.209V340.209H1123.11V338.209V336.209H1102.96V338.209ZM1143.25 338.209V340.209H1163.4V338.209V336.209H1143.25V338.209ZM1183.55 338.209V340.209H1203.7V338.209V336.209H1183.55V338.209ZM1223.85 338.209V340.209H1233.92V338.209V336.209H1223.85V338.209ZM1233.92 338.209L1231.94 338.49C1232.42 341.87 1232.97 345.158 1233.59 348.358L1235.55 347.979L1237.52 347.6C1236.91 344.467 1236.37 341.244 1235.9 337.928L1233.92 338.209ZM1240.37 367.178L1238.46 367.778C1240.57 374.484 1243.01 380.714 1245.73 386.498L1247.54 385.647L1249.35 384.796C1246.71 379.18 1244.34 373.118 1242.28 366.579L1240.37 367.178ZM1257.28 402.835L1255.62 403.955C1259.55 409.762 1263.79 414.966 1268.26 419.619L1269.7 418.233L1271.15 416.847C1266.83 412.358 1262.73 407.331 1258.93 401.715L1257.28 402.835ZM1284.61 431.219L1283.44 432.838C1289.07 436.926 1294.87 440.342 1300.69 443.169L1301.57 441.37L1302.44 439.571C1296.82 436.841 1291.22 433.544 1285.78 429.6L1284.61 431.219ZM1320.04 448.465L1319.48 450.386C1326.33 452.371 1332.99 453.64 1339.21 454.334L1339.43 452.346L1339.65 450.359C1333.65 449.689 1327.22 448.464 1320.6 446.544L1320.04 448.465ZM1359.18 452.601L1359.39 454.59C1363.23 454.204 1366.63 453.558 1369.47 452.709L1368.89 450.793L1368.32 448.877C1365.78 449.638 1362.63 450.244 1358.98 450.611L1359.18 452.601ZM1368.89 450.793L1370.02 449.139C1366.93 447.039 1364.01 444.924 1361.26 442.795L1360.04 444.377L1358.81 445.958C1361.63 448.141 1364.62 450.304 1367.77 452.447L1368.89 450.793ZM1343.82 429.714L1345.28 428.352C1340.05 422.733 1335.83 417.024 1332.52 411.227L1330.78 412.22L1329.05 413.213C1332.53 419.299 1336.94 425.253 1342.35 431.076L1343.82 429.714ZM1322.7 391.975L1324.65 391.511C1323 384.612 1322.39 377.562 1322.69 370.352L1320.69 370.269L1318.69 370.187C1318.38 377.734 1319.02 385.154 1320.76 392.44L1322.7 391.975ZM1324 348.689L1325.94 349.185C1326.81 345.775 1327.85 342.332 1329.03 338.854L1327.14 338.209L1325.25 337.564C1324.03 341.131 1322.96 344.675 1322.06 348.194L1324 348.689ZM1327.14 338.209V340.209H1335.78V338.209V336.209H1327.14V338.209ZM1353.05 338.209V340.209H1370.33V338.209V336.209H1353.05V338.209ZM1387.6 338.209V340.209H1404.88V338.209V336.209H1387.6V338.209ZM1422.15 338.209V340.209H1430.79V338.209V336.209H1422.15V338.209ZM1430.79 338.209V340.209C1434.17 340.209 1437.41 339.535 1440.36 338.311L1439.59 336.464L1438.83 334.616C1436.35 335.642 1433.64 336.209 1430.79 336.209V338.209ZM1452.04 324.013L1453.89 324.779C1455.11 321.829 1455.79 318.595 1455.79 315.209H1453.79H1451.79C1451.79 318.06 1451.22 320.774 1450.19 323.247L1452.04 324.013ZM1453.79 315.209H1455.79V304.844H1453.79H1451.79V315.209H1453.79ZM1453.79 284.115H1455.79V263.386H1453.79H1451.79V284.115H1453.79ZM1453.79 242.657H1455.79V221.928H1453.79H1451.79V242.657H1453.79ZM1453.79 201.198H1455.79V180.469H1453.79H1451.79V201.198H1453.79ZM1453.79 159.74H1455.79V139.011H1453.79H1451.79V159.74H1453.79ZM1453.79 118.281H1455.79V97.5522H1453.79H1451.79V118.281H1453.79ZM1453.79 76.823H1455.79V56.0938H1453.79H1451.79V76.823H1453.79ZM1453.79 35.3646H1455.79V25H1453.79H1451.79V35.3646H1453.79ZM1453.79 25H1455.79C1455.79 21.6139 1455.11 18.3802 1453.89 15.4298L1452.04 16.1959L1450.19 16.962C1451.22 19.4353 1451.79 22.1489 1451.79 25H1453.79ZM1439.59 3.74526L1440.36 1.89781C1437.41 0.674293 1434.17 0 1430.79 0V2V4C1433.64 4 1436.35 4.56707 1438.83 5.59271L1439.59 3.74526Z" fill="#4687C8"/>
</svg>
